# xmcd
#
# Track frame offsets:
# 150
# 16976
# 36224
# 45699
# 63812
# 82307
# 100285
# 115332
# 135514
# 154693
# 177230
# 189946
# 192893
# 212732
# 234658
# 256482
# 261494
# 270186
# 288393
#
# Disc length: 4042 seconds
#
#
# Revision: 0
# Processed by: cddbd v1.5.1PL0 Copyright (c) Steve Scherf et al.
# Submitted via: FreeRIP 2.941 
#
DISCID=0e0fc813
DTITLE=ras kass - soul on ice - demo
DYEAR=1492
DGENRE=hip hop
TTITLE0=Everything I Love
TTITLE1=Core Audience
TTITLE2=High IQ
TTITLE3=Won't Catch Me Runnin
TTITLE4=Capital Ras
TTITLE5=Blood Is Thicker Than Water
TTITLE6=Interlude
TTITLE7=Take A Deep Breath
TTITLE8=Remain Anonymous
TTITLE9=Take A Deep Breath (Remix)
TTITLE10=Walk The Walk
TTITLE11=Why We Don't Believe TV (Skit)
TTITLE12=Catch Me If You Can
TTITLE13=Kiss U
TTITLE14=AmeriKKKa Me
TTITLE15=Interlude
TTITLE16=Razzy Music feat. Shea
TTITLE17=One Night
TTITLE18=R.A.S. (Run Away Slave)
EXTD=
EXTT0=
EXTT1=
EXTT2=
EXTT3=
EXTT4=
EXTT5=
EXTT6=
EXTT7=
EXTT8=
EXTT9=
EXTT10=
EXTT11=
EXTT12=
EXTT13=
EXTT14=
EXTT15=
EXTT16=
EXTT17=
EXTT18=
PLAYORDER=
